<svg width="256px" height="290px" preserveAspectRatio="xMidYMid" version="1.1" viewBox="0 0 256 290" xml:space="preserve" xmlns="http://www.w3.org/2000/svg"><path d="m127.87 286.23c-2.74 0-5.2516-0.685-7.0783-1.5983l-110.28-63.476c-3.8817-2.2833-7.0783-7.9916-7.0783-12.33v-127.41c0-4.3383 3.425-10.047 7.0783-12.33l110.28-63.476c1.8267-1.1417 4.3383-1.5983 7.0783-1.5983s5.2516 0.685 7.0783 1.5983l110.06 63.705c3.8817 2.2833 7.0783 7.9916 7.0783 12.33v127.18c0 4.3383-3.425 10.047-7.0783 12.33l-110.06 63.705c-1.8267 0.91333-4.3383 1.37-7.0783 1.37z" fill="#384a3d"/><path d="m127.87 7.4404c2.055 0 4.11 0.45667 5.48 1.1417l110.06 63.476c2.74 1.5983 5.48 6.165 5.48 9.3616v127.18c0 3.1966-2.74 7.7633-5.48 9.3616l-110.06 63.705c-1.37 0.68499-3.425 1.1417-5.48 1.1417s-4.11-0.45667-5.48-1.1417l-110.06-63.476c-2.74-1.5983-5.48-6.165-5.48-9.3616v-127.41c0-3.1967 2.74-7.7633 5.48-9.3616l110.06-63.476c1.37-0.685 3.425-1.1417 5.48-1.1417zm0-6.85c-3.1966 0-6.3933 0.685-8.905 2.055l-110.06 63.476c-4.795 2.9683-8.905 9.8183-8.905 15.298v127.18c0 5.7083 3.8817 12.558 8.905 15.298l110.06 63.705c2.5117 1.37 5.7083 2.055 8.905 2.055 3.1967 0 6.3933-0.68499 8.905-2.055l110.06-63.705c4.795-2.74 8.905-9.59 8.905-15.298v-127.18c0-5.7083-3.8816-12.558-8.905-15.298l-110.06-63.476c-2.5117-1.37-5.7083-2.055-8.905-2.055z" fill="#ccc"/><path d="m127.87 159.05h-0.91333c-4.5666-0.22833-8.905-2.9683-11.188-6.85-1.37-2.5117-2.055-5.2516-1.8267-7.9916 0.22833-3.1967 1.5983-6.165 3.6533-8.4483v-0.22833l-90.191 68.728 103.66-45.667c-1.1417 0.22833-2.055 0.45666-3.1967 0.45666z" fill="#3a594d"/><path d="m124.44 131.65c1.37-0.22833 2.74-0.45666 4.3383-0.45666 4.5667 0.22833 8.905 2.9683 11.188 6.85 1.37 2.5117 2.055 5.2516 1.8267 7.9916-0.22833 3.425-1.5983 6.3933-3.8817 8.6766l91.105-67.13-104.58 44.068z" fill="#28ec5a"/><g transform="matrix(.43047 0 0 .43047 137.95 113.12)" fill="#ccc" stroke-width=".99891"><path transform="rotate(180 101.63 176.14)" d="m146.66 223.44 0.0813-10.484h-33.321v-94.679h-23.568v94.679h-33.321v10.281c0 5.6889 0.1219 10.443 0.28444 10.565 0.1219 0.16254 20.399 0.24381 44.983 0.20317l44.739-0.1219z"/><path transform="matrix(1 0 0 -1 0 352.38)" d="m206.57 234.27c6.5016-1.6254 11.459-4.5105 16.01-9.2241 2.3568-2.5194 5.8514-7.1111 6.1359-8.2083 0.0813-0.32508-11.053-7.8019-17.798-11.987-0.24381-0.16254-1.219 0.89397-2.3162 2.5194-3.2914 4.7949-6.7454 6.8673-12.028 7.233-7.7613 0.52826-12.759-3.5352-12.719-10.321 0-1.9911 0.28444-3.1695 1.0971-4.7949 1.7067-3.5352 4.8762-5.6482 14.832-9.9556 18.326-7.8832 26.169-13.084 31.045-20.48 5.4451-8.2489 6.6641-21.415 2.9664-31.208-4.0635-10.646-14.141-17.879-28.323-20.277-4.3886-0.77206-14.791-0.65016-19.505 0.20318-10.281 1.8286-20.033 6.9079-26.047 13.572-2.3568 2.6006-6.9486 9.3867-6.6641 9.8743 0.1219 0.16254 1.1784 0.81269 2.3568 1.5035 1.1378 0.65016 5.4451 3.1289 9.5086 5.4857l7.3549 4.2667 1.5441-2.2756c2.1536-3.2914 6.8673-7.8019 9.7118-9.3054 8.1676-4.3073 19.383-3.6978 24.909 1.2597 2.3568 2.1536 3.3321 4.3886 3.3321 7.68 0 2.9664-0.36572 4.2667-1.9098 6.5016-1.9911 2.8444-6.0546 5.2419-17.595 10.24-13.206 5.6889-18.895 9.2241-24.096 14.832-3.007 3.2508-5.8514 8.4521-7.0298 12.8-0.97523 3.6165-1.219 12.678-0.44698 16.335 2.7225 12.759 12.353 21.658 26.25 24.3 4.5105 0.85334 14.994 0.52826 19.423-0.56889z"/></g></svg>
